{"title":"Get A Job (2016) 1080P WEB-DL [KNIGHTS]","uid":14071326,"size":3418799995,"categoryP":"video","categoryS":"hd___movies","magnet":"?xt=urn:btih:9387dc13797591ceec00d3838db428471f62e501&amp;dn=Get+A+Job+%282016%29+1080P+WEB-DL+%5BKNIGHTS%5D&amp;tr=udp%3A%2F%2Ftracker.leechers-paradise.org%3A6969&amp;tr=udp%3A%2F%2Fzer0day.ch%3A1337&amp;tr=udp%3A%2F%2Fopen.demonii.com%3A1337&amp;tr=udp%3A%2F%2Ftracker.coppersurfer.tk%3A6969&amp;tr=udp%3A%2F%2Fexodus.desync.com%3A6969","seeders":0,"leechers":0,"uploader":"rapidintection","files":8,"time":1459177480,"description":"Get A Job (2016) 1080P WEB-DL [KNIGHTS]\r\n\r\nCover Artwork   \nhttp://i.imgur.com/15hT1Dm.jpg\r\n\r\nScreen Shots \nhttp://i.imgur.com/jLn3YzP.jpg \nhttp://i.imgur.com/tR8Xhkx.jpg \nhttp://i.imgur.com/XHnl4Fc.jpg \nhttp://i.imgur.com/vKwmdaH.jpg \nhttp://i.imgur.com/s8GR77g.jpg \nhttp://i.imgur.com/t7CfkgC.jpg\r\n\r\nGeneral\r\nFormat                         : Matroska\r\nFormat version                 : Version 4 / Version 2\r\nFile size                      : 3.18 GiB\r\nDuration                       : 1h 22mn\r\nOverall bit rate               : 5 497 Kbps\r\nMovie name                     : Get A Job (2016) 1080P WEB-DL [KNIGHTS]\r\n\r\n\r\nVideo\r\nID                             : 1\r\nFormat                         : AVC\r\nFormat/Info                    : Advanced Video Codec\r\nFormat profile                 :   \r\nFormat settings, CABAC         : Yes\r\nFormat settings, ReFrames      : 4 frames\r\nCodec ID                       : V_MPEG4/ISO/AVC\r\nDuration                       : 1h 22mn\r\nBit rate                       : 5 003 Kbps\r\nWidth                          : 1 912 pixels\r\nHeight                         : 1 072 pixels\r\nDisplay aspect ratio           : 16:9\r\nFrame rate mode                : Constant\r\nFrame rate                     : 23.976 fps\r\nColor space                    : YUV\r\nChroma subsampling             : 4:2:0\r\nBit depth                      : 8 bits\r\nScan type                      : Progressive\r\nBits/(Pixel*Frame)             : 0.102\r\nStream size                    : 2.89 GiB (91%)\r\nTitle                          : Get A Job (2016) 1080P WEB-DL [KNIGHTS]\r\nLanguage                       : English\r\nDefault                        : Yes\r\nForced                         : No\r\nColor range                    : Limited\r\nColor primaries                : BT.709\r\nTransfer characteristics       : BT.709\r\nMatrix coefficients            : BT.709\r\n\r\nAudio\r\nID                             : 2\r\nFormat                         : AC-3\r\nFormat/Info                    : Audio Coding 3\r\nMode extension                 : CM (complete main)\r\nFormat settings, Endianness    : Big\r\nCodec ID                       : A_AC3\r\nDuration                       : 1h 22mn\r\nBit rate mode                  : Constant\r\nBit rate                       : 384 Kbps\r\nChannel(s)                     : 6 channels\r\nChannel positions              : Front: L C R, Side: L R, LFE\r\nSampling rate                  : 48.0 KHz\r\nCompression mode               : Lossy\r\nStream size                    : 227 MiB (7%)\r\nTitle                          : Get A Job (2016) 1080P WEB-DL [KNIGHTS]\r\nLanguage                       : English\r\nDefault                        : Yes\r\nForced                         : No\r\n\r\n***Brought To You By KNIGHTS***","torrent":{"xt":"urn:btih:9387dc13797591ceec00d3838db428471f62e501","amp;dn":"Get+A+Job+%282016%29+1080P+WEB-DL+%5BKNIGHTS%5D","amp;tr":["udp%3A%2F%2Ftracker.leechers-paradise.org%3A6969","udp%3A%2F%2Fzer0day.ch%3A1337","udp%3A%2F%2Fopen.demonii.com%3A1337","udp%3A%2F%2Ftracker.coppersurfer.tk%3A6969","udp%3A%2F%2Fexodus.desync.com%3A6969"],"infoHash":"9387dc13797591ceec00d3838db428471f62e501","infoHashBuffer":{"type":"Buffer","data":[147,135,220,19,121,117,145,206,236,0,211,131,141,180,40,71,31,98,229,1]},"announce":[],"urlList":[]}}